<svg version="1.2" xmlns="http://www.w3.org/2000/svg" viewBox="0 0 1637 754" width="1637" height="754">
	<title>374</title>
	<style>
		tspan { white-space:pre } 
		.s0 { fill: #6fbc49 } 
		.s1 { fill: #074341 } 
	</style>
	<g id="Design">
		<path id="Rectangle " class="s0" d="m-1042.6 3032.3c-344.1-344-344.1-901.8 0-1245.9l1480.5-1480.5c344-344 901.8-344 1245.9 0 344 344.1 344 901.9 0 1246l-1480.5 1480.4c-344 344.1-901.9 344.1-1245.9 0z"/>
		<path id="Rectangle " class="s1" d="m-1136.6 3125.6c-344.1-344-344.1-901.8 0-1245.8l1480.5-1480.3c344-344.1 901.8-344.1 1245.9 0 344 344 344 901.7 0 1245.8l-1480.5 1480.3c-344 344-901.9 344-1245.9 0z"/>
	</g>
</svg>