<svg version="1.2" xmlns="http://www.w3.org/2000/svg" viewBox="0 0 3337 3336" width="3337" height="3336">
    <style>
        .a {
            fill: #6fbc49
        }

        .b {
            fill: #074341
        }
    </style>
    <path class="a"
        d="m352.4 2984.3c-344.1-344-344.1-901.8 0-1245.9l1480.5-1480.5c344-344 901.8-344 1245.9 0 344 344.1 344 901.9 0 1246l-1480.5 1480.4c-344 344.1-901.9 344.1-1245.9 0z" />
    <path class="b"
        d="m258.4 3077.6c-344.1-344-344.1-901.8 0-1245.8l1480.5-1480.3c344-344.1 901.8-344.1 1245.9 0 344 344 344 901.7 0 1245.8l-1480.5 1480.3c-344 344-901.9 344-1245.9 0z" />
</svg>