<svg version="1.2" xmlns="http://www.w3.org/2000/svg" viewBox="0 0 439 131" width="439" height="131"><style>.a{fill:#6fbc49}.b{fill:#063d3b}.c{fill:#fff}</style><path class="a" d="m65.6-0.1h308c35.9 0 65 29.1 65 65v0.5c0 35.9-29.1 65-65 65h-308c-35.9 0-65-29.1-65-65v-0.5c0-35.9 29.1-65 65-65z"/><path class="b" d="m65.3 16.4c27 0 48.8 21.8 48.8 48.7 0 27-21.8 48.8-48.8 48.8-26.9 0-48.7-21.8-48.7-48.8 0-26.9 21.8-48.7 48.7-48.7z"/><path class="c" d="m61.3 52.2c-0.7 0.6-0.7 1.7 0 2.4l8.6 8.2h-20.5c-0.9 0-1.7 0.7-1.7 1.7v2.3c0 0.9 0.8 1.7 1.7 1.7h20.5l-8.6 8.2c-0.7 0.6-0.7 1.7 0 2.4l1.6 1.6c0.7 0.7 1.7 0.7 2.4 0l13.9-13.9c0.6-0.6 0.6-1.7 0-2.4l-13.9-13.8c-0.7-0.7-1.7-0.7-2.4 0z"/></svg>