<svg version="1.2" xmlns="http://www.w3.org/2000/svg" viewBox="0 0 3197 1920" width="3197" height="1920">
	<title>374</title>
	<style>
		tspan { white-space:pre } 
		.s0 { fill: #75c24f } 
		.s1 { fill: #074341 } 
	</style>
	<g id="Design">
		<path id="Rectangle" class="s0" d="m-49.3 1520.9l-0.4-0.4c-453.8-453.7-453.8-1189.4 0-1643.2l1953.6-1953.4c453.8-453.8 1189.6-453.8 1643.4 0l0.3 0.4c453.8 453.8 453.8 1189.5 0 1643.2l-1953.5 1953.4c-453.9 453.8-1189.6 453.8-1643.4 0z"/>
		<path id="Rectangle" class="s1" d="m-105.6 1476.7l-0.7-0.7c-402.2-402.2-402.2-1054.3 0-1456.5l1732.4-1732.2c402.2-402.2 1054.4-402.2 1456.7 0l0.6 0.6c402.3 402.3 402.3 1054.4 0 1456.6l-1732.3 1732.2c-402.3 402.2-1054.5 402.2-1456.7 0z"/>
	</g>
</svg>